<svg xmlns="http://www.w3.org/2000/svg" version="1.1"   width="512" height="512" x="0" y="0" viewBox="0 0 512 512" style="enable-background:new 0 0 512 512" xml:space="preserve" class=""><g><path d="m490.152 306.385-40.666-15.25c-2.65-.994-4.644-3.171-5.474-5.79l4.053-3.04a33.636 33.636 0 0 0 13.393-24.696l1.915-28.724V228.876l3.42-51.303c.775-11.616-3.342-23.153-11.295-31.653-7.954-8.501-19.191-13.377-30.833-13.377h-46.594c-5.139 0-10.125.911-14.784 2.648a76.29 76.29 0 0 0-18.195-52.77 76.312 76.312 0 0 0-58.153-26.838h-61.88a76.313 76.313 0 0 0-58.154 26.837 76.316 76.316 0 0 0-17.312 61.662l4.761 29.758c-14.09-21.747-34.469-32.746-60.826-32.746-31.94 0-55.141 16.171-68.96 48.065-10.432 24.08-15.672 57.568-16.017 102.381-.047 6.247 3.697 11.974 9.54 14.59 5.308 2.378 11.065 4.472 17.219 6.277L16.966 322.89C6.501 328.869 0 340.071 0 352.123v10.766c0 13.851 11.268 25.119 25.119 25.119h52.769a42.907 42.907 0 0 0-.928 8.881v34.409c0 13.851 11.268 25.119 25.119 25.119H409.92c13.851 0 25.119-11.268 25.119-25.119V396.89a42.9 42.9 0 0 0-.928-8.881h52.769c13.851 0 25.119-11.268 25.119-25.119v-24.978c.001-13.957-8.779-26.627-21.847-31.527zm-42.776-78.565c-.887 13.248-12.851 24.439-26.129 24.439H401.37a8.017 8.017 0 0 0 0 16.034h19.877c8.494 0 16.544-2.698 23.299-7.268a17.606 17.606 0 0 1-6.099 8.456l-17.943 13.456a17.745 17.745 0 0 1-10.582 3.527H392.82a17.75 17.75 0 0 1-10.582-3.527l-17.942-13.457a17.608 17.608 0 0 1-6.748-10.876c10.207-3.192 17.636-12.735 17.636-23.981V217.52c0-1.082-.077-2.144-.21-3.19 21.504-2.873 52.193-8.382 74.514-18.165l-2.112 31.655zm-319.109 15.353c0 9.725-7.912 17.637-17.637 17.637H93.528a8.017 8.017 0 0 0 0 16.034h17.102c4.883 0 9.522-1.053 13.714-2.931a17.53 17.53 0 0 1-4.64 4.064l-21.502 12.902a9.074 9.074 0 0 1-9.349 0l-21.502-12.902c-5.281-3.169-8.563-8.964-8.563-15.124v-37.557c5.317-.264 12.787-.818 20.909-1.977 16.975-2.425 29.989-6.522 38.836-12.211l9.733 9.733v22.332zm16.031 19.679v-10.366c4.385 4.329 10.346 7.055 16.933 7.237.735 9.785 1.146 20.227 1.239 31.744a.568.568 0 0 1-.061.031c-8.754 3.922-19.426 7.093-30.998 9.255-2.603-1.66-4.215-4.542-4.215-7.647 0-.304-.02-.602-.053-.897l.808-.485c10.084-6.05 16.347-17.114 16.347-28.872zm-69.699 38.171 6.006 3.604a25.1 25.1 0 0 0 12.924 3.587 25.1 25.1 0 0 0 12.924-3.587l6.006-3.604c1.928 5.786 5.926 10.786 11.363 13.893l4.498 2.571c-4.001 5.367-17.024 21.366-34.79 28.327-17.669-6.934-30.765-22.962-34.787-28.33l4.491-2.568c5.439-3.107 9.436-8.107 11.365-13.893zm67.726 24.467 19.811 11.321a17.51 17.51 0 0 1 3.038 2.202l-55.261 16.579c17.787-10.399 29.6-26.123 32.412-30.102zm9.419-13.085c6.155-1.804 11.913-3.896 17.221-6.275 5.841-2.617 9.587-8.345 9.54-14.591a595.05 595.05 0 0 0-.061-5.092 42.252 42.252 0 0 0 5.316 5.3l4.365 3.639v16.759a7.93 7.93 0 0 0-1.888.089 8.02 8.02 0 0 0-5.317 3.455l-6.672 10.008a33.894 33.894 0 0 0-4.158-2.806l-18.346-10.486zm37.817 19.227 53.351 40.014-28.064 22.451-34.619-48.467 9.332-13.998zm-4.632-68.183-8.802-55.015h2.913a8.015 8.015 0 0 0 7.17-4.432l14.923-29.846c41.487-1.188 95.383-16.533 116.679-23.089l7.212 50.483a8.016 8.016 0 0 0 7.937 6.883h2.913l-6.162 38.511c-1.871 2.104-21.344 22.417-73.711 22.417a8.017 8.017 0 0 0 0 16.034c33.609 0 55.601-7.707 69.003-15.148a26.185 26.185 0 0 1-7.027 9.183l-34.32 28.6a17.669 17.669 0 0 1-11.291 4.087h-32.732a17.676 17.676 0 0 1-11.291-4.087l-34.32-28.6a26.197 26.197 0 0 1-9.094-15.981zm157.973 2.533.01-.057a33.632 33.632 0 0 0 11.762 16.382l4.053 3.04a9.133 9.133 0 0 1-5.474 5.788l-29.379 11.017v-6.768l4.365-3.637a42.208 42.208 0 0 0 14.663-25.765zm-20.463 65.65 9.333 13.998-34.619 48.467-28.064-22.451 53.35-40.014zm9.114-15.234 15.427-5.786 46.373 30.915v11.444L346.58 338.94l-15.027-22.542zm33.041-13.314a25.319 25.319 0 0 0 7.206-7.933l.815.611a33.878 33.878 0 0 0 20.202 6.734h17.102a33.878 33.878 0 0 0 20.202-6.734l.814-.611a25.334 25.334 0 0 0 7.209 7.934l-36.775 24.516-36.775-24.517zm-3.974-147.836c4.802-4.311 10.927-6.671 17.453-6.671h46.593v-.001c7.326 0 14.118 2.947 19.124 8.297 5.006 5.351 7.494 12.323 7.007 19.633l-.078 1.179c-16.24 9.2-46.358 16.952-83.536 21.476a25.06 25.06 0 0 0-12.573-6.341l6.01-37.572zm-1.472 62.272v17.102c0 5.01-4.076 9.086-9.086 9.086h-3.597l5.606-35.042c4.046.918 7.077 4.536 7.077 8.854zM179.106 92.823a60.305 60.305 0 0 1 45.954-21.207h61.88a60.305 60.305 0 0 1 45.954 21.207 60.306 60.306 0 0 1 13.68 48.728l-7.357 45.98-6.872-48.103a8.017 8.017 0 0 0-10.471-6.471c-.757.251-76.298 25.241-125.732 25.241a8.015 8.015 0 0 0-7.17 4.432l-14.886 29.773h-.523l-8.136-50.85a60.306 60.306 0 0 1 13.679-48.73zM152.852 217.52c0-4.318 3.03-7.935 7.075-8.854l5.607 35.042h-3.597c-5.01 0-9.086-4.076-9.086-9.086V217.52zM24.646 291.499c-.024-.011-.043-.022-.06-.031.342-42.519 5.149-73.901 14.695-95.935 11.197-25.843 28.941-38.405 54.247-38.405 25.566 0 43.479 12.903 54.657 39.389a25.249 25.249 0 0 0-9.656 11.912L124.85 194.75a8.016 8.016 0 0 0-11.337 0c-5.652 5.652-18.4 10.152-35.895 12.67-14.253 2.051-26.724 2.084-26.846 2.084a8.017 8.017 0 0 0-8.017 8.017v45.333c0 11.759 6.264 22.823 16.347 28.872l.808.485a8.046 8.046 0 0 0-.053.897c0 3.105-1.611 5.987-4.214 7.647-11.569-2.162-22.245-5.335-30.997-9.256zm60.378 80.476H25.119c-5.01 0-9.086-4.076-9.086-9.086v-10.766a17.676 17.676 0 0 1 8.887-15.313l19.811-11.321c3.49 4.939 20.836 27.978 46.263 36.454a7.996 7.996 0 0 0 2.535.411c.521 0 1.038-.067 1.551-.17a41.828 41.828 0 0 0-10.056 9.791zm51.794 68.409h-34.739c-5.01 0-9.086-4.076-9.086-9.086V396.89c0-4.595 1.181-8.937 3.278-12.727l34.2 28.501a17.59 17.59 0 0 1 6.346 13.549v14.171zm111.165 0h-95.131v-14.172a33.578 33.578 0 0 0-12.115-25.866l-32.618-27.183a26.596 26.596 0 0 1 3.539-1.356l55.642-16.693 39.422 55.191a8.015 8.015 0 0 0 11.531 1.599l29.73-23.784v52.264zm-43.824-117.845v-13.793l13.92 11.601a33.734 33.734 0 0 0 21.555 7.804h32.732a33.736 33.736 0 0 0 21.555-7.804l13.92-11.601v13.793L256 361.42l-51.841-38.881zm154.989 103.673v14.172h-95.132V388.12l29.731 23.785a8.014 8.014 0 0 0 11.531-1.599l39.422-55.191s58.046 17.524 59.181 18.049l-32.618 27.183a33.574 33.574 0 0 0-12.115 25.865zm59.858 5.087c0 5.01-4.076 9.086-9.086 9.086h-34.739v-14.172c0-5.25 2.313-10.189 6.346-13.549l34.2-28.501a26.214 26.214 0 0 1 3.278 12.727v34.409zm76.962-68.41h-.001c0 5.01-4.076 9.086-9.086 9.086h-59.904c-4.402-6.037-10.421-10.886-17.591-13.92v-16.528l46.373-30.915 28.764 10.786c6.845 2.566 11.445 9.203 11.445 16.513v24.978z" fill="#000000" ></path></g></svg>