<svg xmlns="http://www.w3.org/2000/svg" version="1.1" xmlns:xlink="http://www.w3.org/1999/xlink" xmlns:svgjs="http://svgjs.com/svgjs" width="512" height="512" x="0" y="0" viewBox="0 0 64 64" style="enable-background:new 0 0 512 512" xml:space="preserve" class=""><g><path d="m34.144 36.542 1.963-3.306-5.343-5.343-3.306 1.963a15.877 15.877 0 0 0-2.73-1.128L23.777 25h-7.555l-.95 3.729c-.947.292-1.862.67-2.73 1.128l-3.306-1.963-5.343 5.343 1.963 3.306a15.877 15.877 0 0 0-1.128 2.73L1 40.223v7.555l3.729.95c.292.947.67 1.862 1.128 2.73l-1.963 3.306 5.343 5.343 3.306-1.963c.868.458 1.783.836 2.73 1.128l.95 3.728h7.555l.95-3.729c.947-.292 1.862-.67 2.73-1.128l3.306 1.963 5.343-5.343-1.963-3.306c.458-.868.836-1.783 1.128-2.73l3.728-.95v-7.555l-3.729-.95a15.873 15.873 0 0 0-1.127-2.73zM37 46.223l-3.344.853-.152.564c-.316 1.177-.78 2.3-1.379 3.337l-.292.507 1.76 2.966-3.144 3.144-2.966-1.76-.507.292a13.894 13.894 0 0 1-3.337 1.379l-.564.152L22.223 61h-4.445l-.853-3.344-.564-.152c-1.177-.316-2.3-.78-3.337-1.379l-.507-.292-2.966 1.76-3.144-3.144 1.76-2.966-.292-.507a13.894 13.894 0 0 1-1.379-3.337l-.152-.564L3 46.223v-4.445l3.344-.853.152-.564c.316-1.177.78-2.3 1.379-3.337l.292-.507-1.76-2.966 3.144-3.144 2.966 1.76.507-.292a13.894 13.894 0 0 1 3.337-1.379l.564-.152.852-3.344h4.445l.853 3.344.564.152c1.177.316 2.3.78 3.337 1.379l.507.292 2.966-1.76 3.144 3.144-1.76 2.966.292.507a13.894 13.894 0 0 1 1.379 3.337l.152.564 3.344.852z" fill="#000000" data-original="#000000" class=""></path><path d="M20 32c-6.617 0-12 5.383-12 12s5.383 12 12 12 12-5.383 12-12-5.383-12-12-12zm0 22c-5.514 0-10-4.486-10-10s4.486-10 10-10 10 4.486 10 10-4.486 10-10 10z" fill="#000000" data-original="#000000" class=""></path><path d="M20 38c-3.309 0-6 2.691-6 6s2.691 6 6 6 6-2.691 6-6-2.691-6-6-6zm0 10c-2.206 0-4-1.794-4-4s1.794-4 4-4 4 1.794 4 4-1.794 4-4 4zM60 9H36c-1.654 0-3 1.346-3 3v14c0 1.654 1.346 3 3 3h2v4.618L47.236 29H60c1.654 0 3-1.346 3-3V12c0-1.654-1.346-3-3-3zm1 17a1 1 0 0 1-1 1H46.764L40 30.382V27h-4a1 1 0 0 1-1-1V12a1 1 0 0 1 1-1h24a1 1 0 0 1 1 1zM4 19h9.723L20 22.767V19h8c1.654 0 3-1.346 3-3V4c0-1.654-1.346-3-3-3H4C2.346 1 1 2.346 1 4v12c0 1.654 1.346 3 3 3zM3 4a1 1 0 0 1 1-1h24a1 1 0 0 1 1 1v12a1 1 0 0 1-1 1H18v2.233L14.277 17H4a1 1 0 0 1-1-1z" fill="#000000" data-original="#000000" class=""></path><path d="M57 23h-2v-8h-2v8h-2V13h-2v10h-2v-6h-2v6h-2v-4h-2v4h-2v2h20V13h-2zM8 13c1.654 0 3-1.346 3-3S9.654 7 8 7s-3 1.346-3 3 1.346 3 3 3zm0-4a1 1 0 1 1 0 2 1 1 0 0 1 0-2zM16 13c1.654 0 3-1.346 3-3s-1.346-3-3-3-3 1.346-3 3 1.346 3 3 3zm0-4a1 1 0 1 1 0 2 1 1 0 0 1 0-2zM24 13c1.654 0 3-1.346 3-3s-1.346-3-3-3-3 1.346-3 3 1.346 3 3 3zm0-4a1 1 0 1 1 0 2 1 1 0 0 1 0-2zM52 41c-1.956 0-3.871.524-5.563 1.52l-6.03-.716 2.028 4.78A10.95 10.95 0 0 0 41 52c0 6.065 4.935 11 11 11s11-4.935 11-11-4.935-11-11-11zm-5.645 18h11.289c-1.545 1.248-3.508 2-5.645 2s-4.098-.752-5.644-2zm4.315-6.521A1.974 1.974 0 0 1 50 51v-1.83c0-1.141.849-2.112 1.891-2.167a1.982 1.982 0 0 1 1.486.547c.401.382.623.896.623 1.45v2c0 .564-.238 1.09-.67 1.479l-.33.298v1.841L55.764 56c.445.222.791.575 1.003 1h-9.533a2.232 2.232 0 0 1 1.003-1L51 54.618v-1.841zm8.307 5.196a4.202 4.202 0 0 0-2.319-3.464l-1.513-.756c.549-.7.855-1.565.855-2.455v-2a4.017 4.017 0 0 0-1.246-2.901c-.804-.762-1.844-1.134-2.968-1.094C49.663 45.116 48 46.946 48 49.17V51c0 .89.306 1.755.854 2.455l-1.513.756a4.202 4.202 0 0 0-2.319 3.464 8.96 8.96 0 0 1-.624-10.478l.28-.443-1.085-2.558 3.303.393.301-.19A8.965 8.965 0 0 1 52 43c4.963 0 9 4.037 9 9 0 2.15-.76 4.125-2.023 5.675z" fill="#000000"
                                                                                                                                                                                                                                                                                                                                                                                                                                                                                                                                                                                                                                                                                                                                                                                                                                                                                                                                                                                                                                                                                                                                                                                                                                                                                                                                                                                                                                                                                                                                                                                                                                                                                                                                                                                                                                                                                                                                                                                                                                                                                                                                class=""></path></g></svg>