<svg xmlns="http://www.w3.org/2000/svg" version="1.1"  width="512" height="512" x="0" y="0" viewBox="0 0 512 512" style="enable-background:new 0 0 512 512" xml:space="preserve" class=""><g transform="matrix(0.9599999999999994,0,0,0.9599999999999994,10.239975481033412,10.240047378540169)"><path d="M146.898 487.346c-6.88 0-13.77-.486-20.622-1.46a7.502 7.502 0 0 1-5.901-4.621c-2.434-6.036-4.701-13.093-6.757-21.025a123.217 123.217 0 0 1-27.992-11.604c-7.064 4.156-13.661 7.545-19.655 10.095a7.506 7.506 0 0 1-7.441-.905 145.93 145.93 0 0 1-29.018-28.984 7.498 7.498 0 0 1-.907-7.44c2.55-5.999 5.942-12.604 10.105-19.681a123.263 123.263 0 0 1-11.604-27.992c-7.946-2.06-15.011-4.331-21.051-6.768a7.502 7.502 0 0 1-4.62-5.902 145.914 145.914 0 0 1 .024-41.014 7.499 7.499 0 0 1 4.621-5.901c6.036-2.434 13.093-4.701 21.025-6.758a123.263 123.263 0 0 1 11.604-27.992c-4.157-7.065-7.545-13.662-10.095-19.655a7.5 7.5 0 0 1 .905-7.44c.944-1.257 1.92-2.513 2.901-3.734a7.5 7.5 0 0 1 11.781 9.283c2.53 5.381 5.759 11.28 9.633 17.599a7.5 7.5 0 0 1-.012 7.859 108.343 108.343 0 0 0-13.267 32.005 7.5 7.5 0 0 1-5.548 5.565c-7.203 1.729-13.653 3.616-19.243 5.629a130.956 130.956 0 0 0-.02 28.102c5.592 2.016 12.049 3.905 19.263 5.637a7.5 7.5 0 0 1 5.548 5.565 108.37 108.37 0 0 0 13.267 32.004 7.5 7.5 0 0 1 .012 7.859c-3.878 6.326-7.11 12.232-9.641 17.616a130.911 130.911 0 0 0 19.885 19.857c5.38-2.531 11.281-5.76 17.597-9.632a7.495 7.495 0 0 1 7.859.012 108.4 108.4 0 0 0 32.004 13.268 7.498 7.498 0 0 1 5.565 5.548c1.728 7.202 3.616 13.653 5.629 19.242a131.02 131.02 0 0 0 28.102.021c2.017-5.595 3.907-12.053 5.636-19.263a7.5 7.5 0 0 1 5.565-5.548 108.388 108.388 0 0 0 32.004-13.268 7.502 7.502 0 0 1 7.859-.013c6.324 3.877 12.231 7.109 17.617 9.642a130.866 130.866 0 0 0 19.856-19.886c-2.529-5.378-5.758-11.277-9.632-17.597a7.5 7.5 0 0 1 .012-7.859 108.36 108.36 0 0 0 13.267-32.004 7.5 7.5 0 0 1 5.548-5.565c7.202-1.729 13.653-3.616 19.243-5.629a131.02 131.02 0 0 0 .021-28.102c-5.598-2.018-12.057-3.907-19.264-5.637a7.5 7.5 0 0 1-5.548-5.565 108.275 108.275 0 0 0-7.699-21.806l-10.917 10.917c3.411 8.021 5.641 16.373 6.505 24.682 2.31 22.213-5.068 43.098-20.776 58.806a7.501 7.501 0 0 1-10.606-10.607c15.957-15.956 17.76-34.174 16.463-46.647-1.725-16.578-10.094-33.467-22.962-46.335-12.869-12.869-29.757-21.238-46.336-22.963-12.47-1.3-30.69.506-46.647 16.463-17.707 17.707-24.471 42.874-18.572 66.577l41.375-41.376a7.499 7.499 0 0 1 7.245-1.94l32.235 8.638a7.5 7.5 0 0 1 5.303 5.303l8.637 32.235a7.503 7.503 0 0 1-1.941 7.245l-41.345 41.344c13.993 3.406 28.958 2.5 42.439-2.76a7.5 7.5 0 1 1 5.452 13.975c-20.699 8.075-44.285 7.69-64.712-1.059a7.5 7.5 0 0 1-2.35-12.199l17.126-17.126-19.687-5.275a7.501 7.501 0 0 1-5.304-5.303l-5.275-19.688-17.126 17.127a7.5 7.5 0 0 1-12.197-2.35c-13.823-32.274-6.722-69.161 18.091-93.976 15.708-15.707 36.592-23.08 58.806-20.775 8.31.864 16.66 3.094 24.681 6.506l10.917-10.917a108.324 108.324 0 0 0-21.805-7.699 7.498 7.498 0 0 1-5.565-5.548c-1.728-7.202-3.616-13.653-5.629-19.243a130.891 130.891 0 0 0-28.102-.02c-2.016 5.595-3.907 12.053-5.636 19.263a7.5 7.5 0 0 1-5.565 5.548 108.405 108.405 0 0 0-32.005 13.268 7.502 7.502 0 0 1-7.859.012c-6.327-3.879-12.234-7.111-17.618-9.642a7.5 7.5 0 0 1-9.289-11.776 141.138 141.138 0 0 1 3.739-2.907 7.5 7.5 0 0 1 7.438-.905c5.999 2.55 12.603 5.941 19.68 10.105a123.172 123.172 0 0 1 27.992-11.604c2.059-7.942 4.33-15.007 6.768-21.051a7.502 7.502 0 0 1 5.903-4.62 145.951 145.951 0 0 1 41.014.023 7.5 7.5 0 0 1 5.901 4.622c2.434 6.036 4.701 13.093 6.757 21.025a123.289 123.289 0 0 1 25.046 9.986l52.41-52.41a7.5 7.5 0 0 1 10.607 10.607l-71.198 71.197a98.288 98.288 0 0 1 16.81 13.455 98.214 98.214 0 0 1 13.456 16.811l113.154-113.154a98.243 98.243 0 0 1-16.811-13.456 98.204 98.204 0 0 1-13.455-16.809l-19.957 19.956c-2.929 2.929-7.678 2.928-10.606-.001s-2.929-7.678.001-10.606l23.05-23.049c.065-.065.133-.131.201-.194-3.413-8.021-5.644-16.376-6.509-24.688-2.311-22.213 5.068-43.098 20.775-58.806 24.815-24.812 61.702-31.913 93.976-18.091a7.499 7.499 0 0 1 4.411 5.476 7.499 7.499 0 0 1-2.061 6.723l-46.849 46.847 6.396 23.869 23.869 6.396 7.265-7.266a7.5 7.5 0 0 1 10.607 10.607l-10.327 10.327a7.5 7.5 0 0 1-7.245 1.94l-32.234-8.638a7.5 7.5 0 0 1-5.303-5.303l-8.638-32.234a7.503 7.503 0 0 1 1.94-7.245l41.376-41.374c-23.706-5.898-48.87.865-66.578 18.572-15.956 15.956-17.76 34.174-16.462 46.647 1.725 16.578 10.094 33.467 22.963 46.335 12.868 12.869 29.757 21.238 46.335 22.963 12.477 1.295 30.69-.506 46.648-16.463 17.707-17.707 24.471-42.875 18.572-66.576l-9.049 9.048c-2.929 2.929-7.678 2.928-10.606-.001s-2.929-7.678.001-10.606l17.583-17.582a7.502 7.502 0 0 1 12.198 2.35c13.823 32.273 6.722 69.16-18.092 93.975-15.708 15.707-36.588 23.086-58.807 20.774-8.308-.864-16.66-3.094-24.681-6.505l-69.023 69.024L454.2 275.563c32.496 3.795 57.8 31.495 57.8 64.993s-25.304 61.198-57.8 64.993l-103.011 13.318c-4.11.521-7.869-2.369-8.4-6.477s2.369-7.869 6.477-8.4l62.446-8.073c-18.362-11.602-30.583-32.082-30.583-55.361s12.221-43.76 30.583-55.361L271.73 267.096l-15.242 15.242a123.335 123.335 0 0 1 9.986 25.046c7.938 2.059 15.003 4.328 21.05 6.767a7.501 7.501 0 0 1 4.621 5.904 146.026 146.026 0 0 1-.023 41.014 7.5 7.5 0 0 1-4.622 5.901c-6.036 2.434-13.093 4.701-21.025 6.758a123.229 123.229 0 0 1-11.604 27.991c2.787 4.736 5.227 9.261 7.3 13.532l55.36-7.157c4.107-.537 7.869 2.369 8.4 6.477a7.501 7.501 0 0 1-6.477 8.4l-56.507 7.305a145.927 145.927 0 0 1-27.873 27.558 7.505 7.505 0 0 1-7.441.907c-6.001-2.552-12.605-5.943-19.68-10.105a123.172 123.172 0 0 1-27.992 11.604c-2.059 7.942-4.329 15.006-6.767 21.05a7.5 7.5 0 0 1-5.903 4.62 145.246 145.246 0 0 1-20.393 1.436zM129.316 358.03l23.87 6.396 17.474-17.474-6.396-23.87-23.87-6.396-17.474 17.474zm317.248 9.338c-14.784 0-26.812-12.027-26.812-26.812s12.027-26.812 26.812-26.812 26.812 12.027 26.812 26.812-12.028 26.812-26.812 26.812zm0-38.623c-6.513 0-11.812 5.299-11.812 11.812s5.299 11.812 11.812 11.812 11.812-5.299 11.812-11.812-5.299-11.812-11.812-11.812zm0-38.624c-27.809 0-50.436 22.626-50.436 50.436 0 27.809 22.626 50.436 50.436 50.436 27.809 0 50.436-22.626 50.436-50.436s-22.626-50.436-50.436-50.436z" fill="#000000"></path></g></svg>