<svg xmlns="http://www.w3.org/2000/svg" version="1.1" xmlns:xlink="http://www.w3.org/1999/xlink" xmlns:svgjs="http://svgjs.com/svgjs" width="512" height="512" x="0" y="0" viewBox="0 0 682.667 682.667" style="enable-background:new 0 0 512 512" xml:space="preserve" class=""><g><defs><clipPath id="b" clipPathUnits="userSpaceOnUse"><path d="M0 512h512V0H0Z" fill="#000000"></path></clipPath><clipPath id="c" clipPathUnits="userSpaceOnUse"><path d="M0 512h512V0H0Z" fill="#000000"></path></clipPath></defs><mask id="a"><rect width="100%" height="100%" fill="#ffffff"></rect></mask><g mask="url(#a)"><path d="m0 0 66.549-38.374L280.651 85.238l-66.507 38.398Z" style="stroke-width:15;stroke-linecap:butt;stroke-linejoin:miter;stroke-miterlimit:10;stroke-dasharray:none;stroke-opacity:1" transform="matrix(1.33333 0 0 -1.33333 135.566 233.267)" fill="none" stroke="#000000" stroke-width="15" stroke-linecap="butt" stroke-linejoin="miter" stroke-miterlimit="10" stroke-dasharray="none" stroke-opacity=""></path><path d="M0 0v61.272l-66.508 38.352V37.893Z" style="stroke-width:15;stroke-linecap:butt;stroke-linejoin:miter;stroke-miterlimit:10;stroke-dasharray:none;stroke-opacity:1" transform="matrix(1.33333 0 0 -1.33333 224.182 366.063)" fill="none" stroke="#000000" stroke-width="15" stroke-linecap="butt" stroke-linejoin="miter" stroke-miterlimit="10" stroke-dasharray="none" stroke-opacity=""></path><g clip-path="url(#b)" transform="matrix(1.33333 0 0 -1.33333 0 682.667)"><path d="m0 0-95.429 95.429-85.104-85.105 95.429-95.428z" style="stroke-width:15;stroke-linecap:butt;stroke-linejoin:miter;stroke-miterlimit:10;stroke-dasharray:none;stroke-opacity:1" transform="translate(484.212 228.928)" fill="none" stroke="#000000" stroke-width="15" stroke-linecap="butt" stroke-linejoin="miter" stroke-miterlimit="10" stroke-dasharray="none" stroke-opacity=""></path></g><path d="m0 0-45.912 4.917 2.118 19.781 23.397-2.506-1.095 48.866 19.889.446z" style="stroke-width:15;stroke-linecap:butt;stroke-linejoin:miter;stroke-miterlimit:10;stroke-dasharray:none;stroke-opacity:1" transform="matrix(1.33333 0 0 -1.33333 545.957 410.616)" fill="none" stroke="#000000" stroke-width="15" stroke-linecap="butt" stroke-linejoin="miter" stroke-miterlimit="10" stroke-dasharray="none" stroke-opacity=""></path><path d="M0 0h-7.708l-18.631-18.632v-66.472l18.514-18.515 85.104 85.105L58.765 0H40.136" style="stroke-width:15;stroke-linecap:butt;stroke-linejoin:miter;stroke-miterlimit:10;stroke-dasharray:none;stroke-opacity:1" transform="matrix(1.33333 0 0 -1.33333 415.339 225.506)" fill="none" stroke="#000000" stroke-width="15" stroke-linecap="butt" stroke-linejoin="miter" stroke-miterlimit="10" stroke-dasharray="none" stroke-opacity=""></path><g clip-path="url(#c)" transform="matrix(1.33333 0 0 -1.33333 0 682.667)"><path d="M0 0c1.026 9.612 4.69 18.157 11.181 24.647 20.637 20.638 62.038 12.698 92.47-17.734 30.433-30.433 38.373-71.833 17.736-92.471-3.47-3.469-7.527-6.131-12.02-8.015" style="stroke-width:15;stroke-linecap:butt;stroke-linejoin:miter;stroke-miterlimit:10;stroke-dasharray:none;stroke-opacity:1" transform="translate(198.93 393.2)" fill="none" stroke="#000000" stroke-width="15" stroke-linecap="butt" stroke-linejoin="miter" stroke-miterlimit="10" stroke-dasharray="none" stroke-opacity=""></path><path d="M0 0c-12.866 4.758-25.868 13.024-37.318 24.474a115.94 115.94 0 0 0-4.714 5" style="stroke-width:15;stroke-linecap:butt;stroke-linejoin:miter;stroke-miterlimit:10;stroke-dasharray:none;stroke-opacity:1" transform="translate(265.165 300.904)" fill="none" stroke="#000000" stroke-width="15" stroke-linecap="butt" stroke-linejoin="miter" stroke-miterlimit="10" stroke-dasharray="none" stroke-opacity=""></path><path d="M0 0v97.683l-214.189 123.675-214.189-123.675-.001-247.325 214.19-123.662L0-149.642v43.553" style="stroke-width:15;stroke-linecap:butt;stroke-linejoin:miter;stroke-miterlimit:10;stroke-dasharray:none;stroke-opacity:1" transform="translate(456.167 281.973)" fill="none" stroke="#000000" stroke-width="15" stroke-linecap="butt" stroke-linejoin="miter" stroke-miterlimit="10" stroke-dasharray="none" stroke-opacity=""></path><path d="m0 0 69.796-40.296" style="stroke-width:15;stroke-linecap:butt;stroke-linejoin:miter;stroke-miterlimit:10;stroke-dasharray:15, 10, 15, 10, 30, 500;stroke-dashoffset:0;stroke-opacity:1" transform="translate(86.85 123.582)" fill="none" stroke="#000000" stroke-width="15" stroke-linecap="butt" stroke-linejoin="miter" stroke-miterlimit="10" stroke-dasharray="15, 10, 15, 10, 30, 500" stroke-dashoffset="0" stroke-opacity=""></path><path d="M0 0v-247.478" style="stroke-width:15;stroke-linecap:butt;stroke-linejoin:miter;stroke-miterlimit:10;stroke-dasharray:none;stroke-opacity:1" transform="translate(241.977 256.147)" fill="none" stroke="#000000" stroke-width="15" stroke-linecap="butt" stroke-linejoin="miter" stroke-miterlimit="10" stroke-dasharray="none" stroke-opacity=""></path><path d="m0 0 214.189-123.509 23.188 13.37" style="stroke-width:15;stroke-linecap:butt;stroke-linejoin:miter;stroke-miterlimit:10;stroke-dasharray:none;stroke-opacity:1" transform="translate(27.788 379.656)" fill="none" stroke="#000000" stroke-width="15" stroke-linecap="butt" stroke-linejoin="miter" stroke-miterlimit="10" stroke-dasharray="none" stroke-opacity=""></path><path d="m0 0-59.874-34.525" style="stroke-width:15;stroke-linecap:butt;stroke-linejoin:miter;stroke-miterlimit:10;stroke-dasharray:none;stroke-opacity:1" transform="translate(456.167 379.656)" fill="none" stroke="#000000" stroke-width="15" stroke-linecap="butt" stroke-linejoin="miter" stroke-miterlimit="10" stroke-dasharray="none" stroke-opacity=""></path></g></g></g></svg>