<svg xmlns="http://www.w3.org/2000/svg" version="1.1" xmlns:xlink="http://www.w3.org/1999/xlink" xmlns:svgjs="http://svgjs.com/svgjs" width="512" height="512" x="0" y="0" viewBox="0 0 64 64" style="enable-background:new 0 0 512 512" xml:space="preserve" class=""><g><path d="M61 9c1.103 0 2-.897 2-2V3c0-1.103-.897-2-2-2H3c-1.103 0-2 .897-2 2v4c0 1.103.897 2 2 2h2v46H3c-1.103 0-2 .897-2 2v4c0 1.103.897 2 2 2h55.964A4.041 4.041 0 0 0 63 58.964c0-.838-.256-1.644-.738-2.328L59 52.015V9zM3 3h58l.002 4H3zm0 54h28.522A4.008 4.008 0 0 0 31 58.964c0 .746.217 1.436.571 2.036H3zm46 3a1 1 0 1 1 2 0 1 1 0 0 1-2 0zm12-1.036A2.038 2.038 0 0 1 58.964 61h-6.148c.112-.314.184-.648.184-1 0-1.654-1.346-3-3-3s-3 1.346-3 3c0 .352.072.686.184 1H35.036a2.038 2.038 0 0 1-1.663-3.21L39.577 49h14.846l.038.054C52.512 49.32 51 50.978 51 53c0 2.206 1.794 4 4 4 1.544 0 2.871-.888 3.537-2.172l2.091 2.962c.243.345.372.751.372 1.174zM43 29v-2h8l.002 2zm2 10.73V31h4v2h-2v2h2v2h-2v2h2v.73c0 .434.068.858.176 1.27H47v2h3.187l2.824 4H40.989l3.095-4.386c.6-.848.916-1.845.916-2.884zM57 53c0 1.103-.897 2-2 2s-2-.897-2-2 .897-2 2-2c.384 0 .744.12 1.063.323l.876 1.241c.032.144.061.289.061.436zm0-3.818-5.451-7.722A2.976 2.976 0 0 1 51 39.73V31c1.103 0 2-.897 2-2v-2c0-1.103-.897-2-2-2h-8c-1.103 0-2 .897-2 2v2c0 1.103.897 2 2 2v8.73c0 .623-.189 1.221-.55 1.729L32.894 55H7V9h50z" fill="#000000" data-original="#000000" class=""></path><path d="M44 51c-1.654 0-3 1.346-3 3s1.346 3 3 3 3-1.346 3-3-1.346-3-3-3zm0 4a1 1 0 1 1 0-2 1 1 0 0 1 0 2zM17 37.382l-4 2v5.802A2.996 2.996 0 0 0 11 48c0 1.654 1.346 3 3 3s3-1.346 3-3a2.996 2.996 0 0 0-2-2.816v-4.566l3-1.5 6 3 7-3.5v-8.236l-6-3V21.5l3.333-2.5h6.851A2.996 2.996 0 0 0 38 21c1.654 0 3-1.346 3-3s-1.346-3-3-3a2.996 2.996 0 0 0-2.816 2h-7.517l-3.772 2.829L18 16.882l-7 3.5v8.236l6 3zM14 49a1 1 0 1 1 0-2 1 1 0 0 1 0 2zm24-32a1 1 0 1 1 0 2 1 1 0 0 1 0-2zm-9 20.382-5 2.5-5-2.5v-5.764l5-2.5 5 2.5zM13 21.618l5-2.5 5 2.5v5.764l-5 2.5-5-2.5zM43 15h12v2H43zM43 19h12v2H43zM28 13h7v2h-7zM23 47h4v2h-4zM29 47h4v2h-4zM23 51h10v2H23z" fill="#000000" data-original="#000000" class=""></path></g></svg>