<svg xmlns="http://www.w3.org/2000/svg" version="1.1" xmlns:xlink="http://www.w3.org/1999/xlink" xmlns:svgjs="http://svgjs.com/svgjs" width="512" height="512" x="0" y="0" viewBox="0 0 512 512" style="enable-background:new 0 0 512 512" xml:space="preserve" class=""><g><path d="M419.895 67.335c-11.177-3.009-22.863-1.466-32.902 4.344-20.692 11.977-27.862 38.59-15.984 59.327 5.76 10.056 15.084 17.25 26.256 20.258a43.382 43.382 0 0 0 11.293 1.503c7.509 0 14.926-1.977 21.611-5.846 20.692-11.977 27.862-38.59 15.984-59.327-5.761-10.057-15.087-17.251-26.258-20.259zm2.759 66.603c-6.562 3.796-14.193 4.805-21.49 2.842-7.291-1.963-13.378-6.661-17.141-13.229-7.785-13.593-3.083-31.038 10.482-38.89 4.371-2.529 9.217-3.821 14.123-3.821 2.458 0 4.932.324 7.366.979 7.291 1.963 13.379 6.661 17.142 13.229 7.786 13.594 3.084 31.039-10.482 38.89z" fill="#000000" data-original="#000000" class=""></path><path d="m506.142 132.175-13.947-12.017a84.08 84.08 0 0 0-.368-24.753l13.141-11.276c5.814-4.989 7.273-13.433 3.468-20.078L496.371 42.99a15.9 15.9 0 0 0-19.104-7.092l-17.339 6.129a83.298 83.298 0 0 0-21.512-11.944l-3.129-17.03C433.899 5.488 427.318 0 419.642 0h-.004l-24.232.003c-7.659.002-14.252 5.478-15.675 13.019L376.3 31.198a86.02 86.02 0 0 0-21.146 12.749l-16.243-5.748c-7.228-2.556-15.267.414-19.113 7.07L307.63 66.332c-3.839 6.645-2.414 15.095 3.388 20.093l13.947 12.017a84.081 84.081 0 0 0 .369 24.753l-13.141 11.276c-5.814 4.989-7.273 13.433-3.468 20.078l12.063 21.06a15.899 15.899 0 0 0 19.105 7.093l17.339-6.129a83.331 83.331 0 0 0 21.512 11.944l3.129 17.032c1.39 7.563 7.972 13.051 15.649 13.051l24.232-.003c7.659-.002 14.251-5.478 15.675-13.02l3.43-18.176a86.069 86.069 0 0 0 21.146-12.749l16.246 5.748c7.228 2.558 15.267-.417 19.11-7.07l12.169-21.064c3.838-6.644 2.412-15.093-3.388-20.091zm-9.6 12.588-12.169 21.064a.94.94 0 0 1-1.119.433l-20.361-7.205a7.497 7.497 0 0 0-7.57 1.542 70.236 70.236 0 0 1-23.601 14.271 7.498 7.498 0 0 0-4.831 5.666l-4.201 22.262a.968.968 0 0 1-.938.801l-24.23.003a.92.92 0 0 1-.896-.763l-3.919-21.333a7.504 7.504 0 0 0-5.119-5.797c-8.887-2.805-16.972-7.283-24.029-13.309-2.335-1.782-4.791-2.238-7.37-1.367l-21.296 7.527a.895.895 0 0 1-1.088-.405l-12.063-21.06a.988.988 0 0 1 .219-1.24l16.438-14.106a7.5 7.5 0 0 0 2.442-7.299c-1.995-9.092-2.143-18.378-.441-27.601a7.5 7.5 0 0 0-2.479-7.043l-17.112-14.743a.972.972 0 0 1-.19-1.226l12.168-21.063a.945.945 0 0 1 1.12-.434l20.361 7.205A7.505 7.505 0 0 0 361.839 58a70.152 70.152 0 0 1 23.598-14.27 7.5 7.5 0 0 0 4.832-5.666l4.202-22.263a.967.967 0 0 1 .938-.801h24.232c.437 0 .812.32.893.763l3.92 21.333a7.504 7.504 0 0 0 5.119 5.797c8.889 2.806 16.974 7.283 24.029 13.309a7.505 7.505 0 0 0 7.37 1.367l21.296-7.528a.895.895 0 0 1 1.088.406l12.063 21.06a.988.988 0 0 1-.219 1.24l-16.438 14.106a7.5 7.5 0 0 0-2.442 7.299c1.994 9.09 2.143 18.376.44 27.601a7.5 7.5 0 0 0 2.479 7.043l17.112 14.743a.974.974 0 0 1 .191 1.224zM108.825 270.125c-.004-13.321-11.059-25.096-24.582-25.035l-4.222-.011-.031-37.511c-.011-11.391-17.777-8.705-14.998 1.916l.029 35.556-21.544-.057-.107-128.544a7.502 7.502 0 0 0-1.025-3.78l-17.86-30.541-.01-40.285 59.296.276.01 39.802-17.849 30.682a7.492 7.492 0 0 0-1.018 3.777l.041 49.448c-2.51 10.437 15.011 12.282 15.001 1.765l-.04-49.198 17.848-30.68a7.5 7.5 0 0 0 1.018-3.773l-.02-76.434C98.762 3.63 95.19 0 91.24 0L16.944.217C12.877.228 9.473 3.631 9.466 7.7l.02 76.453a7.5 7.5 0 0 0 1.025 3.784l17.861 30.543.105 126.463-4.228-.011c-29.201.084-32.922 45.132-4.206 50.14l-.244 149.515c-.065 45.798 68.726 45.449 68.788.177l.245-149.955c11.371-2.227 19.997-12.456 19.993-24.684zM24.471 26.833l-.003-11.638 59.295-.174.003 12.088zm29.813 438.008c-10.687 0-19.5-9.759-19.485-20.229l.244-149.202 38.788-.113-.244 149.446c-.015 11.05-8.675 20.067-19.303 20.098zm29.927-184.575-59.954.175c-12.129 0-12.024-20.474-.006-20.508l59.994.157c12.035 0 12.121 20.14-.034 20.176z" fill="#000000" data-original="#000000" class=""></path><path d="m480.17 425.11-.015-33.161c-.022-54.444-24.608-105.242-67.452-139.369-4.278-3.409-11.498-3.755-16.131-.77-16.367-11.112-34.3-19.174-53.47-24.023.756-4.024-.059-9.561-4.044-11.632-23.86-12.396-52.345-12.386-76.193.032-3.984 2.074-4.794 7.618-4.034 11.642a168.718 168.718 0 0 0-25.576 8.709l.735-88.306c30.558-7.579 46.697-27.323 46.784-57.414.097-33.33-19.688-71.709-46.021-89.271-6.366-2.577-10.253-.505-11.661 6.218l-.182 62.336c-.274 3.353-2.056 5.199-5.346 5.539l-31.631-.158c-2.956-.015-5.353-2.537-5.344-5.624l.181-62.337c-1.363-6.719-5.231-8.818-11.606-6.297-26.445 17.306-46.461 55.497-46.558 88.835-.087 30.064 15.919 49.956 46.395 57.842l-.829 124.535c-29.682 32.617-46.274 74.911-46.255 119.663l.014 33.077c-29.574 9.029-23.855 54.303 7.762 54.303 22.122 0 42.809 6.577 62.12 16.947C211.204 506.615 233.038 512 254.957 512h.057l92.146-.039c21.94-.01 43.79-5.413 63.188-15.626 19.293-10.489 39.968-16.991 62.094-17 31.187-.012 37.794-45.443 7.728-54.225zm-89.901-159.431.037 87.957a7.5 7.5 0 0 0 7.5 7.497h.003a7.5 7.5 0 0 0 7.497-7.503l-.037-87.772c38.071 31.244 59.866 77.061 59.887 126.098l.015 31.981h-59.834l-.014-30.441a7.5 7.5 0 0 0-7.5-7.497h-.003a7.5 7.5 0 0 0-7.497 7.503l.013 30.436h-47.15l-.076-180.63c16.906 4.718 32.719 12.22 47.159 22.371zm-62.166-38.145.083 196.402h-54.271l-.083-196.38a67.645 67.645 0 0 1 54.271-.022zm-69.189 196.403h-47.149l-.067-158.183c14.276-10.054 30.329-17.697 47.14-22.405zM137.607 90.103c.067-23.083 11.735-49.681 28.117-66.575l-.134 46.287c-.033 11.341 9.06 20.612 20.27 20.668l31.631.158c10.934 0 20.389-9.588 20.42-20.496l.135-46.232c16.285 17.063 27.797 43.778 27.729 66.863-.071 24.572-13.352 38.972-40.601 44.021a7.5 7.5 0 0 0-6.134 7.312l-.848 101.858a169.963 169.963 0 0 0-12.81 7.924c-4.633-2.981-11.855-2.631-16.129.783a183.147 183.147 0 0 0-5.982 5.008l.77-115.71a7.5 7.5 0 0 0-6.061-7.41c-27.239-5.328-40.445-19.87-40.373-44.459zm59.09 175.842.067 157.991H136.93l-.014-31.843c-.019-49.036 21.736-94.872 59.781-126.148zm285 194.464a12.78 12.78 0 0 1-9.262 3.926c-24.525.01-47.634 7.212-69.076 18.727-17.253 9.085-36.688 13.892-56.205 13.899l-92.146.039h-.051c-19.497-.001-38.92-4.79-56.167-13.853-20.775-11.11-45.11-20.001-69.097-18.668-16.805 0-16.478-25.536.524-25.543h341.672c10.574.631 18.065 12.927 9.808 21.473z" fill="#000000" data-original="#000000" class=""></path></g></svg>